<mxfile host="app.diagrams.net" agent="Mozilla/5.0 (Macintosh; Intel Mac OS X 10_15_7) AppleWebKit/537.36 (KHTML, like Gecko) Chrome/130.0.0.0 Safari/537.36" version="24.8.1">
  <diagram name="第 1 页" id="dEIvDljneDY7gIWV1ZGK">
    <mxGraphModel dx="1051" dy="784" grid="1" gridSize="10" guides="1" tooltips="1" connect="1" arrows="1" fold="1" page="1" pageScale="1" pageWidth="827" pageHeight="1169" background="#fafafa" math="0" shadow="0">
      <root>
        <mxCell id="0" />
        <mxCell id="1" parent="0" />
        <mxCell id="hUnpTWX5Ij0IJ8Fe-6PR-33" style="edgeStyle=orthogonalEdgeStyle;rounded=0;orthogonalLoop=1;jettySize=auto;html=1;fontSize=16;" parent="1" source="hUnpTWX5Ij0IJ8Fe-6PR-29" target="hUnpTWX5Ij0IJ8Fe-6PR-30" edge="1">
          <mxGeometry relative="1" as="geometry" />
        </mxCell>
        <mxCell id="hUnpTWX5Ij0IJ8Fe-6PR-29" value="用户" style="shape=umlActor;verticalLabelPosition=bottom;verticalAlign=top;html=1;outlineConnect=0;fontSize=16;" parent="1" vertex="1">
          <mxGeometry x="166.5" y="160" width="30" height="60" as="geometry" />
        </mxCell>
        <mxCell id="hUnpTWX5Ij0IJ8Fe-6PR-34" style="edgeStyle=orthogonalEdgeStyle;rounded=0;orthogonalLoop=1;jettySize=auto;html=1;fontSize=16;" parent="1" source="hUnpTWX5Ij0IJ8Fe-6PR-30" target="hUnpTWX5Ij0IJ8Fe-6PR-31" edge="1">
          <mxGeometry relative="1" as="geometry" />
        </mxCell>
        <mxCell id="hUnpTWX5Ij0IJ8Fe-6PR-30" value="前端应用" style="rounded=0;whiteSpace=wrap;html=1;fontSize=16;" parent="1" vertex="1">
          <mxGeometry x="588" y="160" width="120" height="60" as="geometry" />
        </mxCell>
        <mxCell id="hUnpTWX5Ij0IJ8Fe-6PR-31" value="后端服务" style="rounded=0;whiteSpace=wrap;html=1;fontSize=16;" parent="1" vertex="1">
          <mxGeometry x="588" y="450" width="120" height="60" as="geometry" />
        </mxCell>
        <mxCell id="hUnpTWX5Ij0IJ8Fe-6PR-32" value="数据库" style="rounded=0;whiteSpace=wrap;html=1;fontSize=16;" parent="1" vertex="1">
          <mxGeometry x="119" y="450" width="120" height="60" as="geometry" />
        </mxCell>
        <mxCell id="hUnpTWX5Ij0IJ8Fe-6PR-35" style="rounded=0;orthogonalLoop=1;jettySize=auto;html=1;entryX=1;entryY=0.5;entryDx=0;entryDy=0;fontSize=16;" parent="1" source="hUnpTWX5Ij0IJ8Fe-6PR-31" target="hUnpTWX5Ij0IJ8Fe-6PR-32" edge="1">
          <mxGeometry relative="1" as="geometry" />
        </mxCell>
        <mxCell id="hUnpTWX5Ij0IJ8Fe-6PR-36" value="" style="endArrow=classic;html=1;rounded=0;fontSize=16;" parent="1" edge="1">
          <mxGeometry width="50" height="50" relative="1" as="geometry">
            <mxPoint x="247" y="160" as="sourcePoint" />
            <mxPoint x="508" y="160" as="targetPoint" />
          </mxGeometry>
        </mxCell>
        <mxCell id="hUnpTWX5Ij0IJ8Fe-6PR-37" value="1：浏览新闻" style="edgeLabel;html=1;align=center;verticalAlign=middle;resizable=0;points=[];fontSize=16;" parent="hUnpTWX5Ij0IJ8Fe-6PR-36" vertex="1" connectable="0">
          <mxGeometry x="-0.3487" relative="1" as="geometry">
            <mxPoint as="offset" />
          </mxGeometry>
        </mxCell>
        <mxCell id="hUnpTWX5Ij0IJ8Fe-6PR-38" value="" style="endArrow=classic;html=1;rounded=0;fontSize=16;" parent="1" edge="1">
          <mxGeometry width="50" height="50" relative="1" as="geometry">
            <mxPoint x="730" y="240" as="sourcePoint" />
            <mxPoint x="730" y="431" as="targetPoint" />
          </mxGeometry>
        </mxCell>
        <mxCell id="hUnpTWX5Ij0IJ8Fe-6PR-39" value="3：请求新闻列表" style="edgeLabel;html=1;align=center;verticalAlign=middle;resizable=0;points=[];fontSize=16;" parent="hUnpTWX5Ij0IJ8Fe-6PR-38" vertex="1" connectable="0">
          <mxGeometry x="-0.3487" relative="1" as="geometry">
            <mxPoint as="offset" />
          </mxGeometry>
        </mxCell>
        <mxCell id="hUnpTWX5Ij0IJ8Fe-6PR-44" value="" style="endArrow=classic;html=1;rounded=0;fontSize=16;" parent="1" edge="1">
          <mxGeometry width="50" height="50" relative="1" as="geometry">
            <mxPoint x="507" y="220" as="sourcePoint" />
            <mxPoint x="247" y="220" as="targetPoint" />
          </mxGeometry>
        </mxCell>
        <mxCell id="hUnpTWX5Ij0IJ8Fe-6PR-45" value="2：&amp;nbsp; 展示新闻列表" style="edgeLabel;html=1;align=center;verticalAlign=middle;resizable=0;points=[];fontSize=16;" parent="hUnpTWX5Ij0IJ8Fe-6PR-44" vertex="1" connectable="0">
          <mxGeometry x="0.3077" y="-1" relative="1" as="geometry">
            <mxPoint as="offset" />
          </mxGeometry>
        </mxCell>
        <mxCell id="hUnpTWX5Ij0IJ8Fe-6PR-46" value="" style="endArrow=classic;html=1;rounded=0;fontSize=16;" parent="1" edge="1">
          <mxGeometry width="50" height="50" relative="1" as="geometry">
            <mxPoint x="570" y="410" as="sourcePoint" />
            <mxPoint x="570" y="260" as="targetPoint" />
          </mxGeometry>
        </mxCell>
        <mxCell id="hUnpTWX5Ij0IJ8Fe-6PR-47" value="4： 返回新闻列表" style="edgeLabel;html=1;align=center;verticalAlign=middle;resizable=0;points=[];fontSize=16;" parent="hUnpTWX5Ij0IJ8Fe-6PR-46" vertex="1" connectable="0">
          <mxGeometry x="-0.3487" relative="1" as="geometry">
            <mxPoint as="offset" />
          </mxGeometry>
        </mxCell>
        <mxCell id="hUnpTWX5Ij0IJ8Fe-6PR-48" value="" style="endArrow=classic;html=1;rounded=0;fontSize=16;" parent="1" edge="1">
          <mxGeometry width="50" height="50" relative="1" as="geometry">
            <mxPoint x="538" y="510" as="sourcePoint" />
            <mxPoint x="288" y="510" as="targetPoint" />
          </mxGeometry>
        </mxCell>
        <mxCell id="hUnpTWX5Ij0IJ8Fe-6PR-49" value="5：查询新闻" style="edgeLabel;html=1;align=center;verticalAlign=middle;resizable=0;points=[];fontSize=16;" parent="hUnpTWX5Ij0IJ8Fe-6PR-48" vertex="1" connectable="0">
          <mxGeometry x="-0.3487" relative="1" as="geometry">
            <mxPoint as="offset" />
          </mxGeometry>
        </mxCell>
        <mxCell id="hUnpTWX5Ij0IJ8Fe-6PR-50" value="" style="endArrow=classic;html=1;rounded=0;fontSize=16;" parent="1" edge="1">
          <mxGeometry width="50" height="50" relative="1" as="geometry">
            <mxPoint x="278" y="450" as="sourcePoint" />
            <mxPoint x="528" y="450" as="targetPoint" />
          </mxGeometry>
        </mxCell>
        <mxCell id="hUnpTWX5Ij0IJ8Fe-6PR-51" value="6：返回新闻" style="edgeLabel;html=1;align=center;verticalAlign=middle;resizable=0;points=[];fontSize=16;" parent="hUnpTWX5Ij0IJ8Fe-6PR-50" vertex="1" connectable="0">
          <mxGeometry x="-0.3487" relative="1" as="geometry">
            <mxPoint as="offset" />
          </mxGeometry>
        </mxCell>
      </root>
    </mxGraphModel>
  </diagram>
</mxfile>
